<svg width="24" height="24" viewBox="0 0 24 24" fill="none" xmlns="http://www.w3.org/2000/svg">
<g id="ri:line-fill">
<path id="Vector" d="M18.663 10.84C18.663 10.9792 18.6079 11.1126 18.5096 11.2112C18.4114 11.3098 18.2782 11.3655 18.139 11.366H16.676V12.303H18.139C18.2782 12.303 18.4118 12.3583 18.5102 12.4568C18.6087 12.5552 18.664 12.6888 18.664 12.828C18.664 12.9672 18.6087 13.1008 18.5102 13.1992C18.4118 13.2977 18.2782 13.353 18.139 13.353H16.15C16.0114 13.3519 15.8787 13.2962 15.781 13.1979C15.6832 13.0996 15.6283 12.9666 15.628 12.828V8.852C15.628 8.565 15.863 8.327 16.153 8.327H18.141C18.2746 8.3355 18.4 8.39464 18.4915 8.49237C18.583 8.59009 18.6339 8.71905 18.6336 8.85294C18.6333 8.98683 18.582 9.11559 18.4901 9.21297C18.3982 9.31034 18.2727 9.36901 18.139 9.377H16.676V10.315H18.139C18.429 10.315 18.663 10.551 18.663 10.84ZM14.566 13.325C14.5124 13.3423 14.4564 13.3511 14.4 13.351C14.3176 13.3527 14.236 13.3346 14.162 13.2983C14.0881 13.2619 14.024 13.2083 13.975 13.142L11.939 10.378V12.828C11.929 12.96 11.8695 13.0833 11.7724 13.1733C11.6754 13.2633 11.5479 13.3133 11.4155 13.3133C11.2831 13.3133 11.1556 13.2633 11.0586 13.1733C10.9615 13.0833 10.902 12.96 10.892 12.828V8.852C10.8917 8.71373 10.9463 8.581 11.0438 8.48295C11.1413 8.3849 11.2737 8.32953 11.412 8.329C11.4921 8.33155 11.5706 8.3519 11.6419 8.38856C11.7132 8.42523 11.7754 8.4773 11.824 8.541L13.876 11.316V8.852C13.876 8.565 14.111 8.327 14.401 8.327C14.688 8.327 14.926 8.565 14.926 8.852V12.828C14.9257 12.9381 14.8908 13.0454 14.8262 13.1346C14.7616 13.2238 14.6706 13.2904 14.566 13.325ZM9.616 13.352C9.47736 13.3512 9.34464 13.2957 9.2467 13.1976C9.14876 13.0995 9.09353 12.9666 9.093 12.828V8.852C9.093 8.565 9.328 8.327 9.618 8.327C9.907 8.327 10.142 8.565 10.142 8.852V12.828C10.1412 12.9671 10.0855 13.1002 9.98694 13.1984C9.88841 13.2965 9.75508 13.3517 9.616 13.352ZM8.086 13.352H6.099C5.96018 13.3512 5.82725 13.2958 5.72899 13.1977C5.63073 13.0996 5.57505 12.9668 5.574 12.828V8.852C5.574 8.565 5.812 8.327 6.099 8.327C6.389 8.327 6.624 8.565 6.624 8.852V12.303H8.088C8.22724 12.303 8.36077 12.3583 8.45923 12.4568C8.55769 12.5552 8.613 12.6888 8.613 12.828C8.613 12.9672 8.55769 13.1008 8.45923 13.1992C8.36077 13.2977 8.22724 13.353 8.088 13.353L8.086 13.352ZM12.001 2.572C6.488 2.572 2.001 6.215 2.001 10.691C2.001 14.7 5.559 18.059 10.364 18.697C10.689 18.766 11.133 18.912 11.245 19.189C11.345 19.439 11.311 19.827 11.277 20.089L11.14 20.939C11.103 21.189 10.94 21.927 12.014 21.476C13.09 21.027 17.778 18.078 19.878 15.664C21.314 14.09 22 12.477 22 10.69C22 6.214 17.512 2.571 12 2.571L12.001 2.572Z" fill="white"/>
</g>
</svg>
