<svg width="20" height="24" viewBox="0 0 20 24" fill="none" xmlns="http://www.w3.org/2000/svg">
<path id="Vector" d="M15 6V4.8C15 3.52696 14.4732 2.30606 13.5355 1.40589C12.5978 0.505713 11.3261 0 9.99999 0C8.67391 0 7.40214 0.505713 6.46446 1.40589C5.52679 2.30606 5.00001 3.52696 5.00001 4.8V6C3.33334 6 1.66667 6 7.25187e-06 6C7.55194e-05 8.97758 0 24 0 24C6.66664 24 13.3333 24 19.9999 24C20 18 20.0001 12 19.9999 6C18.3333 6 16.6666 6 15 6ZM7.5 4.8C7.5 4.16348 7.76339 3.55303 8.23223 3.10294C8.70107 2.65286 9.33695 2.4 9.99999 2.4C10.663 2.4 11.2989 2.65286 11.7677 3.10294C12.2366 3.55303 12.5 4.16348 12.5 4.8V6H7.5V4.8ZM17.4999 21.6C12.4999 21.6 7.49997 21.6 2.49999 21.6C2.50013 17.2 2.50002 12.8 2.50002 8.4H5.00001V10.8C5.00001 10.8 5.56917 10.8 6.25 10.8C6.93083 10.8 7.5 10.8 7.5 10.8V8.4H12.5V10.8C12.5 10.8 13.0691 10.8 13.75 10.8C14.4308 10.8 15 10.8 15 10.8V8.4H17.5C17.5 12.8 17.5001 17.2 17.4999 21.6Z" fill="white"/>
</svg>
