<svg width="21" height="24" viewBox="0 0 21 24" fill="none" xmlns="http://www.w3.org/2000/svg">
<path id="Vector" d="M15.5 6V4.8C15.5 3.52696 14.9732 2.30606 14.0355 1.40589C13.0978 0.505713 11.8261 0 10.5 0C9.17391 0 7.90214 0.505713 6.96446 1.40589C6.02679 2.30606 5.50001 3.52696 5.50001 4.8V6C3.83334 6 2.16667 6 0.500007 6C0.500076 8.97758 0.5 24 0.5 24C7.16664 24 13.8333 24 20.4999 24C20.5 18 20.5001 12 20.4999 6C18.8333 6 17.1666 6 15.5 6ZM8 4.8C8 4.16348 8.26339 3.55303 8.73223 3.10294C9.20107 2.65286 9.83695 2.4 10.5 2.4C11.163 2.4 11.7989 2.65286 12.2677 3.10294C12.7366 3.55303 13 4.16348 13 4.8V6H8V4.8ZM17.9999 21.6C12.9999 21.6 7.99997 21.6 2.99999 21.6C3.00013 17.2 3.00002 12.8 3.00002 8.4H5.50001V10.8C5.50001 10.8 6.06917 10.8 6.75 10.8C7.43083 10.8 8 10.8 8 10.8V8.4H13V10.8C13 10.8 13.5691 10.8 14.25 10.8C14.9308 10.8 15.5 10.8 15.5 10.8V8.4H18C18 12.8 18.0001 17.2 17.9999 21.6Z" fill="#14215A"/>
</svg>
