<svg width="79" height="39" viewBox="0 0 79 39" fill="none" xmlns="http://www.w3.org/2000/svg">
<g id="Group 211">
<g id="Vector">
<path d="M39.5196 0C35.9481 1.56867e-07 32.4115 0.706824 29.1119 2.08016C25.8122 3.4535 22.8141 5.46638 20.2886 8.00398C17.7632 10.5416 15.7599 13.5541 14.3931 16.8697C13.0264 20.1852 12.3229 23.7388 12.3229 27.3275C12.3229 38.9999 0 38.9999 0 38.9999C0 38.9999 32.7386 39 39.5196 39V0Z" fill="#14215A"/>
<path d="M39.4804 0C43.0519 1.56867e-07 46.5884 0.706824 49.8881 2.08016C53.1878 3.4535 56.1859 5.46638 58.7114 8.00398C61.2368 10.5416 63.2401 13.5541 64.6069 16.8697C65.9736 20.1852 66.6771 23.7388 66.6771 27.3275C66.6771 38.9999 79 38.9999 79 38.9999C79 38.9999 46.2614 39 39.4804 39V0Z" fill="#14215A"/>
</g>
<path id="Vector_2" d="M44 14V12.8C44 11.527 43.4732 10.3061 42.5355 9.40589C41.5978 8.50571 40.3261 8 39 8C37.6739 8 36.4021 8.50571 35.4645 9.40589C34.5268 10.3061 34 11.527 34 12.8V14C32.3333 14 30.6667 14 29 14C29.0001 16.9776 29 32 29 32C35.6666 32 42.3333 32 48.9999 32C49 26 49.0001 20 48.9999 14C47.3333 14 45.6666 14 44 14ZM36.5 12.8C36.5 12.1635 36.7634 11.553 37.2322 11.1029C37.7011 10.6529 38.3369 10.4 39 10.4C39.663 10.4 40.2989 10.6529 40.7677 11.1029C41.2366 11.553 41.5 12.1635 41.5 12.8V14H36.5V12.8ZM46.4999 29.6C41.4999 29.6 36.5 29.6 31.5 29.6C31.5001 25.2 31.5 20.8 31.5 16.4H34V18.8C34 18.8 34.5692 18.8 35.25 18.8C35.9308 18.8 36.5 18.8 36.5 18.8V16.4H41.5V18.8C41.5 18.8 42.0691 18.8 42.75 18.8C43.4308 18.8 44 18.8 44 18.8V16.4H46.5C46.5 20.8 46.5001 25.2 46.4999 29.6Z" fill="white"/>
</g>
</svg>
